<?xml version="1.0" encoding="utf-8"?>
<!-- Generator: Adobe Illustrator 24.1.1, SVG Export Plug-In . SVG Version: 6.00 Build 0)  -->
<svg version="1.1" id="Layer_1" xmlns="http://www.w3.org/2000/svg" xmlns:xlink="http://www.w3.org/1999/xlink" x="0px" y="0px"
	 viewBox="0 0 45.4 45.4" style="enable-background:new 0 0 45.4 45.4;" xml:space="preserve">
<style type="text/css">
	.st0{fill:#00B4EC;stroke:#00B4EC;stroke-width:2;stroke-linejoin:round;stroke-miterlimit:10;}
	.st1{fill:none;}
	.st2{stroke:#FFFFFF;stroke-miterlimit:10;}
	.st3{fill:none;stroke:#00B4EC;stroke-width:2;stroke-linejoin:round;stroke-miterlimit:10;}
	.st4{fill:none;stroke:#00B4EC;stroke-width:2;stroke-linecap:round;stroke-linejoin:round;stroke-miterlimit:10;}
	.st5{fill:none;stroke:#FFFFFF;stroke-width:2;stroke-linecap:round;stroke-linejoin:round;stroke-miterlimit:10;}
	.st6{fill:#00B4EC;}
	.st7{opacity:0.5;}
	.st8{fill:#DBEDE0;}
	.st9{fill:#FFFFFF;}
	.st10{opacity:0.7;fill:#DBEDE0;}
	.st11{opacity:0.7;}
</style>
<g>
	<path class="st10" d="M37.2,6.4H0.8C0.4,6.4,0,6.8,0,7.3v37.2c0,0.5,0.4,0.8,0.8,0.8h36.4c0.5,0,0.8-0.4,0.8-0.8V7.3
		C38.1,6.8,37.7,6.4,37.2,6.4z M26.9,27.7C26,31,23,33.3,19.6,33.3c-4.2,0-7.5-3.4-7.5-7.5c0-3.4,2.3-6.4,5.6-7.3
		c0.3-0.1,0.6,0,0.8,0.2c0.2,0.2,0.3,0.5,0.2,0.8c-0.1,0.5-0.2,1-0.2,1.5c0,3.7,3.5,6.7,7.3,5.7c0.3-0.1,0.6,0,0.8,0.2
		C26.9,27.1,26.9,27.4,26.9,27.7z"/>
	<g class="st11">
		<path class="st8" d="M16.8,21c0-0.1,0-0.3,0-0.4c-1.9,1-3.1,3-3.1,5.2c0,3.2,2.6,5.9,5.9,5.9c2.2,0,4.2-1.2,5.2-3.1
			C20.4,28.8,16.8,25.3,16.8,21z"/>
	</g>
	<path class="st8" d="M37.1,7.4v36.9H1V7.4H37.1 M37.2,6.4H0.8C0.4,6.4,0,6.8,0,7.3v37.2c0,0.5,0.4,0.8,0.8,0.8h36.4
		c0.5,0,0.8-0.4,0.8-0.8V7.3C38.1,6.8,37.7,6.4,37.2,6.4L37.2,6.4z"/>
</g>
</svg>
