<?xml version="1.0" encoding="utf-8"?>
<!-- Generator: Adobe Illustrator 24.1.1, SVG Export Plug-In . SVG Version: 6.00 Build 0)  -->
<svg version="1.1" id="레이어_1" xmlns="http://www.w3.org/2000/svg" xmlns:xlink="http://www.w3.org/1999/xlink" x="0px"
	 y="0px" viewBox="0 0 98.1 100.5" style="enable-background:new 0 0 98.1 100.5;" xml:space="preserve">
<style type="text/css">
	.st0{fill:#FFD085;}
	.st1{fill:#D5AF72;}
	.st2{fill:#8A2B21;}
	.st3{fill:#FFFFFF;}
	.st4{fill:#F76D48;}
	.st5{fill:#F9AB2D;}
	.st6{fill:none;stroke:#000000;stroke-miterlimit:10;}
</style>
<path class="st6" d="M59.7,0.5c0,0-19,1-32,9C20.8,13.7,13.9,21,8.8,29.8c-4.5,7.8-7.7,16.8-8.2,25.7c-0.5,8.9-0.4,19.4,3.5,27.9
	c2.8,6.1,7.6,11.2,15.5,14.1c10.1,3.7,18.2,2.6,26.1,1c7-1.5,13.9-3.4,21.9-3c8.4,0.5,14.7-2.9,19.2-9.4c4.6-6.5,7.3-16.1,8.8-27.6
	c1.1-8.5,2.1-16,1.8-22.9c-0.3-6.9-1.8-13.1-5.8-19.1c-3.2-4.8-6.1-8.2-9.3-10.6C76.6,1.5,70,0.5,59.7,0.5z"/>
</svg>
