<?xml version="1.0" encoding="utf-8"?>
<!-- Generator: Adobe Illustrator 24.1.1, SVG Export Plug-In . SVG Version: 6.00 Build 0)  -->
<svg version="1.1" id="레이어_1" xmlns="http://www.w3.org/2000/svg" xmlns:xlink="http://www.w3.org/1999/xlink" x="0px"
	 y="0px" viewBox="0 0 98.1 100.5" style="enable-background:new 0 0 98.1 100.5;" xml:space="preserve">
<style type="text/css">
	.st0{fill:#FFD085;}
	.st1{fill:#D5AF72;}
	.st2{fill:#8A2B21;}
	.st3{fill:#FFFFFF;}
	.st4{fill:#F76D48;}
	.st5{fill:#F9AB2D;}
	.st6{fill:none;stroke:#000000;stroke-miterlimit:10;}
</style>
<path class="st6" d="M76.2,2.6C68.1-0.4,59,1.3,52.1,6.4c-4.2,3.1-8.8,9.1-14.9,12.9c-6.9,4.2-15.7,3.5-25,13
	c-6.3,6.4-11,14.2-11.5,23.2c-0.5,8.9-0.4,19.4,3.5,27.9c2.8,6.1,5.6,8.2,13.5,11.1c10.1,3.7,18.2,2.6,26.1,1
	c7-1.5,10.4-4.6,18.4-4.1c8.4,0.5,20.5-2.6,25-9c4.6-6.5,7-12.3,8.5-23.8c1.1-8.5,2.1-16,1.8-22.9c-0.3-6.9-1.8-13.1-5.8-19.1
	c-3.2-4.8-6.1-8.2-9.3-10.6C80.5,4.4,78.5,3.4,76.2,2.6z"/>
</svg>
