<svg width="167" height="145" viewBox="0 0 167 145" fill="none" xmlns="http://www.w3.org/2000/svg">
<path d="M106.23 42.0002C101.41 38.2802 92.9702 35.3702 86.8802 35.1802C80.3302 34.9702 76.3302 35.1902 69.6302 37.3402C67.3502 38.0702 64.3002 38.9302 62.6402 40.7802C62.4602 38.2502 61.7802 35.7902 60.6302 33.5202C51.8502 16.1202 32.7902 4.18016 13.2002 4.49016C11.6302 4.52016 10.0402 4.67016 8.55021 5.17016C-1.08979 8.39016 0.54021 20.3002 5.23021 27.7602C15.6002 44.2702 36.7202 53.6402 55.5702 48.6202C49.2602 62.8702 43.1602 78.3602 42.3302 94.0902C41.5202 109.41 46.8602 125.96 59.5202 134.63C64.1902 137.82 69.6002 139.8 75.0902 141.14C92.9302 145.5 104.78 142.94 119.58 128.83C128.67 120.16 132.745 109.849 133 96.0002C133.125 89.226 131.5 84.2402 130.25 78.8702C129 73.5002 125.416 65.4804 120.6 57.8302C118.065 53.8024 112.58 48.9702 113.41 47.9902C113.41 48.2102 119.79 47.9402 122.06 47.9102C126.1 47.8502 132.77 46.6302 136.55 45.0902C146.08 41.2002 153.14 34.7302 159.3 25.9502C161.28 23.1302 166.79 13.2302 164.98 8.15016C162.81 2.07016 152.22 1.66016 145.15 3.39016C136.19 5.58016 128.56 7.73016 121.75 13.5002C113.89 20.1602 108.35 31.9302 106.24 42.0102L106.23 42.0002Z" fill="#CA9479" stroke="black" stroke-width="2" stroke-linejoin="round"/>
<path d="M13.5602 16.9399C13.5602 16.9399 12.9902 18.8199 13.0202 19.1699C13.1002 20.2499 13.9402 21.1499 14.5202 21.9899C15.7402 23.7599 17.1502 24.8099 18.9102 26.0699C22.9602 28.9899 27.1202 31.7799 31.6602 33.8999C36.8602 36.3199 45.4002 39.6599 51.1602 38.2299C50.5502 31.9099 40.7802 25.3799 35.6102 22.7399C28.9102 19.3199 21.3602 17.7399 13.8302 17.4799L13.5702 16.9399H13.5602Z" fill="#F1E6E9"/>
<path d="M12.4802 17.96C27.7502 17.56 42.8202 25.37 51.2102 38.17C52.2602 39.78 54.8602 38.28 53.8002 36.66C44.8402 22.99 28.8302 14.53 12.4802 14.96C10.5502 15.01 10.5502 18.01 12.4802 17.96Z" fill="black"/>
<path d="M119.24 35.1301C119.35 35.3301 119.5 35.5101 119.72 35.6601C120.36 36.1001 121.18 36.1101 121.95 36.0701C133.84 35.4001 144.6 27.4401 152.61 19.1801C153.2 18.5701 153.79 17.8901 153.92 17.0601C154.49 13.4001 143.47 15.3101 141.53 15.8501C133.82 18.0101 127.75 23.8001 122.02 29.3901C121.07 30.3101 118.36 33.4701 119.24 35.1301Z" fill="#F1E6E9"/>
<path d="M153.89 12.7598C138.28 11.1798 123.05 20.0298 116.74 34.3998C115.97 36.1498 118.55 37.6798 119.33 35.9098C125.26 22.4098 139.2 14.2698 153.89 15.7598C155.81 15.9498 155.8 12.9498 153.89 12.7598Z" fill="black"/>
<path d="M85.9999 77.4902C83.2599 77.6802 80.8499 78.0402 78.4699 79.8102C76.3399 81.4002 74.6399 83.6102 74.0499 86.4102C73.1499 90.6502 74.0399 94.5302 76.9999 97.4902C78.9999 99.4902 83.6099 99.4402 85.8199 99.4302C89.9999 99.4102 95.5799 97.5702 97.3199 92.9902C97.8799 91.5002 98.0199 89.8602 98.0099 88.2502C97.9899 86.4002 97.7599 84.4902 96.8899 82.9002C94.2699 78.0802 90.4599 77.1902 86.0099 77.4902H85.9999Z" fill="#F1E6E9"/>
<path d="M86 85V76" stroke="black" stroke-width="2.5" stroke-linecap="round"/>
<path d="M82 85C82.9524 85.6944 86.5714 86.8519 90 85" stroke="black" stroke-width="2.5" stroke-linecap="round"/>
<path d="M92.5 70V71.5" stroke="black" stroke-width="2.5" stroke-linecap="round" stroke-linejoin="round"/>
<path d="M80 70V71.5" stroke="black" stroke-width="2.5" stroke-linecap="round" stroke-linejoin="round"/>
<path d="M84.5 74C84.0955 74 83.7309 74.2436 83.5761 74.6173C83.4213 74.991 83.5069 75.4211 83.7929 75.7071L85.2929 77.2071C85.6834 77.5976 86.3166 77.5976 86.7071 77.2071L88.2071 75.7071C88.4931 75.4211 88.5787 74.991 88.4239 74.6173C88.2691 74.2436 87.9045 74 87.5 74H84.5Z" fill="black" stroke="black" stroke-width="2" stroke-linejoin="round"/>
</svg>
