<?xml version="1.0" encoding="utf-8"?>
<!-- Generator: Adobe Illustrator 24.1.1, SVG Export Plug-In . SVG Version: 6.00 Build 0)  -->
<svg version="1.1" id="Layer_1" xmlns="http://www.w3.org/2000/svg" xmlns:xlink="http://www.w3.org/1999/xlink" x="0px" y="0px"
	 viewBox="0 0 45.4 45.4" style="enable-background:new 0 0 45.4 45.4;" xml:space="preserve">
<style type="text/css">
	.st0{fill:#00B4EC;stroke:#00B4EC;stroke-width:2;stroke-linejoin:round;stroke-miterlimit:10;}
	.st1{fill:none;}
	.st2{stroke:#FFFFFF;stroke-miterlimit:10;}
	.st3{fill:none;stroke:#00B4EC;stroke-width:2;stroke-linejoin:round;stroke-miterlimit:10;}
	.st4{fill:none;stroke:#00B4EC;stroke-width:2;stroke-linecap:round;stroke-linejoin:round;stroke-miterlimit:10;}
	.st5{fill:none;stroke:#FFFFFF;stroke-width:2;stroke-linecap:round;stroke-linejoin:round;stroke-miterlimit:10;}
	.st6{fill:#00B4EC;}
	.st7{opacity:0.5;}
	.st8{fill:#DBEDE0;}
	.st9{fill:#FFFFFF;}
	.st10{opacity:0.7;fill:#DBEDE0;}
	.st11{opacity:0.7;}
</style>
<circle class="st10" cx="19.5" cy="19.4" r="2.7"/>
<path class="st10" d="M37.2,0H0.8C0.4,0,0,0.4,0,0.8v37.2c0,0.5,0.4,0.8,0.8,0.8h36.4c0.5,0,0.8-0.4,0.8-0.8V0.8
	C38.1,0.4,37.7,0,37.2,0z M19.5,15.1c2.4,0,4.4,2,4.4,4.4s-2,4.4-4.4,4.4s-4.4-2-4.4-4.4S17.1,15.1,19.5,15.1z M18.6,13.1v-2
	c0-0.5,0.4-0.8,0.8-0.8s0.8,0.4,0.8,0.8v2c0,0.5-0.4,0.8-0.8,0.8S18.6,13.5,18.6,13.1z M24.6,15.5c-0.2,0.2-0.4,0.2-0.6,0.2
	s-0.4-0.1-0.6-0.2c-0.3-0.3-0.3-0.9,0-1.2l1.4-1.4c0.3-0.3,0.9-0.3,1.2,0c0.3,0.3,0.3,0.9,0,1.2L24.6,15.5z M24.6,23.4l1.4,1.4
	c0.3,0.3,0.3,0.9,0,1.2c-0.2,0.2-0.4,0.2-0.6,0.2c-0.2,0-0.4-0.1-0.6-0.2l-1.4-1.4c-0.3-0.3-0.3-0.9,0-1.2S24.3,23.1,24.6,23.4z
	 M20.3,25.9v1.9c0,0.5-0.4,0.8-0.8,0.8s-0.8-0.4-0.8-0.8v-1.9c0-0.5,0.4-0.8,0.8-0.8S20.3,25.4,20.3,25.9z M15.5,24.6L14.1,26
	c-0.2,0.2-0.4,0.2-0.6,0.2c-0.2,0-0.4-0.1-0.6-0.2c-0.3-0.3-0.3-0.9,0-1.2l1.4-1.4c0.3-0.3,0.9-0.3,1.2,0S15.8,24.3,15.5,24.6z
	 M15.5,15.5c-0.2,0.2-0.4,0.2-0.6,0.2s-0.4-0.1-0.6-0.2l-1.4-1.4c-0.3-0.3-0.3-0.9,0-1.2c0.3-0.3,0.9-0.3,1.2,0l1.4,1.4
	C15.9,14.7,15.9,15.2,15.5,15.5z M13.1,18.6c0.5,0,0.8,0.4,0.8,0.8s-0.4,0.8-0.8,0.8h-2c-0.5,0-0.8-0.4-0.8-0.8s0.4-0.8,0.8-0.8
	H13.1z M27.9,20.3h-1.9c-0.5,0-0.8-0.4-0.8-0.8s0.4-0.8,0.8-0.8h1.9c0.5,0,0.8,0.4,0.8,0.8S28.3,20.3,27.9,20.3z"/>
<g>
	<path class="st8" d="M37.1,1v36.9H1V1H37.1 M37.2,0H0.8C0.4,0,0,0.4,0,0.8v37.2c0,0.5,0.4,0.8,0.8,0.8h36.4c0.5,0,0.8-0.4,0.8-0.8
		V0.8C38.1,0.4,37.7,0,37.2,0L37.2,0z"/>
</g>
</svg>
