<?xml version="1.0" encoding="utf-8"?>
<!-- Generator: Adobe Illustrator 24.1.1, SVG Export Plug-In . SVG Version: 6.00 Build 0)  -->
<svg version="1.1" id="Layer_1" xmlns="http://www.w3.org/2000/svg" xmlns:xlink="http://www.w3.org/1999/xlink" x="0px" y="0px"
	 viewBox="0 0 45.4 45.4" style="enable-background:new 0 0 45.4 45.4;" xml:space="preserve">
<style type="text/css">
	.st0{opacity:0.7;}
	.st1{fill:#DBEDE0;}
	.st2{opacity:0.7;fill:#DBEDE0;}
	.st3{fill:#00B4EC;stroke:#00B4EC;stroke-width:2;stroke-linejoin:round;stroke-miterlimit:10;}
	.st4{fill:none;}
	.st5{stroke:#FFFFFF;stroke-miterlimit:10;}
	.st6{fill:none;stroke:#00B4EC;stroke-width:2;stroke-linejoin:round;stroke-miterlimit:10;}
	.st7{fill:none;stroke:#00B4EC;stroke-width:2;stroke-linecap:round;stroke-linejoin:round;stroke-miterlimit:10;}
	.st8{fill:none;stroke:#FFFFFF;stroke-width:2;stroke-linecap:round;stroke-linejoin:round;stroke-miterlimit:10;}
	.st9{fill:#00B4EC;}
	.st10{opacity:0.5;}
	.st11{fill:#FFFFFF;}
</style>
<g class="st10">
	<path class="st1" d="M45.3,32.6l-7.3-32C38,0.3,37.6,0,37.2,0H0.8C0.6,0,0.4,0.1,0.2,0.3C0.1,0.4,0.1,0.5,0.1,0.6H0v37.5
		c0,0,0,0.1,0,0.1c0,0.1,0,0.1,0,0.2c0,0.1,0.1,0.1,0.1,0.2c0,0,0,0.1,0.1,0.1c0,0,0,0,0,0c0.1,0.1,0.1,0.1,0.2,0.2c0,0,0,0,0.1,0
		c0.1,0,0.2,0.1,0.3,0.1h36.4v0c0,0,0,0,0,0c0.2,0,0.3-0.1,0.5-0.2l7.3-5.2c0.1,0,0.1-0.1,0.1-0.1c0,0,0,0,0,0c0,0,0,0,0,0
		C45.3,33.2,45.4,32.9,45.3,32.6z M1.7,9.3l4.6,22.9c0,0,0,0,0,0l-4.6,4V9.3z M37,37.2H3.1l4.1-3.6c0,0,0.1,0,0.1,0h34.6L37,37.2z
		 M8,32L1.9,1.7h34.7L43.5,32H8z"/>
</g>
<g class="st10">
	<path class="st1" d="M13.3,11.5h2.5l0.9,4.1h0l2-4.1h2.7l-2.2,4.2l5.1,6.2h-2.7l-3.4-4.3l-0.8,1.5l0.6,2.7h-2.5L13.3,11.5z"/>
	<path class="st1" d="M23.5,16.6c-0.8-3.4,0.7-5.3,3.6-5.3s5.2,1.9,6,5.3c0.8,3.4-0.7,5.5-3.6,5.5S24.2,20,23.5,16.6z M30.5,16.6
		c-0.5-2-1.6-3.2-2.9-3.2s-1.9,1.2-1.5,3.2c0.5,2,1.6,3.3,3,3.3S30.9,18.7,30.5,16.6z"/>
</g>
</svg>
