<?xml version="1.0" encoding="utf-8"?>
<!-- Generator: Adobe Illustrator 24.1.1, SVG Export Plug-In . SVG Version: 6.00 Build 0)  -->
<svg version="1.1" id="Layer_1" xmlns="http://www.w3.org/2000/svg" xmlns:xlink="http://www.w3.org/1999/xlink" x="0px" y="0px"
	 viewBox="0 0 42.5 42.5" style="enable-background:new 0 0 42.5 42.5;" xml:space="preserve">
<style type="text/css">
	.st0{fill:#DBEDE0;}
	.st1{fill:#00B4EC;stroke:#00B4EC;stroke-width:2;stroke-linejoin:round;stroke-miterlimit:10;}
	.st2{fill:none;}
	.st3{stroke:#FFFFFF;stroke-miterlimit:10;}
	.st4{fill:none;stroke:#00B4EC;stroke-width:2;stroke-linejoin:round;stroke-miterlimit:10;}
	.st5{fill:none;stroke:#00B4EC;stroke-width:2;stroke-linecap:round;stroke-linejoin:round;stroke-miterlimit:10;}
	.st6{fill:none;stroke:#FFFFFF;stroke-width:2;stroke-linecap:round;stroke-linejoin:round;stroke-miterlimit:10;}
	.st7{fill:#00B4EC;}
	.st8{fill:#FFFFFF;}
</style>
<g>
	<circle class="st0" cx="21.3" cy="21.3" r="19.8"/>
</g>
<g>
	<g>
		<path class="st8" d="M37,13.6c-1.3-2.1-2.7-4.1-4.7-5.6c-1.8-1.3-3.9-2.1-6.1-2.4c-0.7-0.1-1.3,0.2-1.5,0.9
			C24.5,7,24.9,7.9,25.6,8c1.1,0.2,2.1,0.4,3.1,0.8c0,0,0.4,0.2,0.2,0.1C28.9,8.9,29,9,29.1,9c0.2,0.1,0.4,0.2,0.6,0.3
			c0.4,0.2,0.8,0.5,1.2,0.8c0.1,0.1-0.1-0.1,0.1,0.1c0.1,0.1,0.2,0.2,0.3,0.2c0.2,0.2,0.4,0.3,0.6,0.5c0.4,0.4,0.7,0.7,1.1,1.1
			c0.7,0.8,1.3,1.8,1.9,2.8C35.7,16.2,37.8,14.9,37,13.6L37,13.6z"/>
	</g>
</g>
</svg>
