<?xml version="1.0" encoding="utf-8"?>
<!-- Generator: Adobe Illustrator 24.1.1, SVG Export Plug-In . SVG Version: 6.00 Build 0)  -->
<svg version="1.1" id="Layer_1" xmlns="http://www.w3.org/2000/svg" xmlns:xlink="http://www.w3.org/1999/xlink" x="0px" y="0px"
	 viewBox="0 0 45.4 45.4" style="enable-background:new 0 0 45.4 45.4;" xml:space="preserve">
<style type="text/css">
	.st0{opacity:0.7;}
	.st1{fill:#DBEDE0;}
	.st2{opacity:0.7;fill:#DBEDE0;}
	.st3{fill:#00B4EC;stroke:#00B4EC;stroke-width:2;stroke-linejoin:round;stroke-miterlimit:10;}
	.st4{fill:none;}
	.st5{stroke:#FFFFFF;stroke-miterlimit:10;}
	.st6{fill:none;stroke:#00B4EC;stroke-width:2;stroke-linejoin:round;stroke-miterlimit:10;}
	.st7{fill:none;stroke:#00B4EC;stroke-width:2;stroke-linecap:round;stroke-linejoin:round;stroke-miterlimit:10;}
	.st8{fill:none;stroke:#FFFFFF;stroke-width:2;stroke-linecap:round;stroke-linejoin:round;stroke-miterlimit:10;}
	.st9{fill:#00B4EC;}
	.st10{opacity:0.5;}
	.st11{fill:#FFFFFF;}
</style>
<path class="st2" d="M37.2,6.4H0.8C0.4,6.4,0,6.8,0,7.3v37.2c0,0.5,0.4,0.8,0.8,0.8h36.4c0.5,0,0.8-0.4,0.8-0.8V7.3
	C38.1,6.8,37.7,6.4,37.2,6.4z M17.3,31.1h-6.8V20.7h6.6v2.1H13v1.9h3.5v2.1H13V29h4.3V31.1z M27.6,31.1H25l-2.6-5l-1-2.3h-0.1
	c0.1,1.2,0.3,2.6,0.3,3.9v3.5h-2.4V20.7h2.5l2.6,5l1,2.3h0.1c-0.1-1.1-0.3-2.6-0.3-3.9v-3.4h2.4V31.1z"/>
<g>
	<path class="st1" d="M37.1,7.4v36.9H1V7.4H37.1 M37.2,6.4H0.8C0.4,6.4,0,6.8,0,7.3v37.2c0,0.5,0.4,0.8,0.8,0.8h36.4
		c0.5,0,0.8-0.4,0.8-0.8V7.3C38.1,6.8,37.7,6.4,37.2,6.4L37.2,6.4z"/>
</g>
</svg>
