<?xml version="1.0" encoding="utf-8"?>
<!-- Generator: Adobe Illustrator 24.1.1, SVG Export Plug-In . SVG Version: 6.00 Build 0)  -->
<svg version="1.1" id="Layer_1" xmlns="http://www.w3.org/2000/svg" xmlns:xlink="http://www.w3.org/1999/xlink" x="0px" y="0px"
	 viewBox="0 0 45.4 45.4" style="enable-background:new 0 0 45.4 45.4;" xml:space="preserve">
<style type="text/css">
	.st0{fill:#00B4EC;stroke:#00B4EC;stroke-width:2;stroke-linejoin:round;stroke-miterlimit:10;}
	.st1{fill:none;}
	.st2{stroke:#FFFFFF;stroke-miterlimit:10;}
	.st3{fill:none;stroke:#00B4EC;stroke-width:2;stroke-linejoin:round;stroke-miterlimit:10;}
	.st4{fill:none;stroke:#00B4EC;stroke-width:2;stroke-linecap:round;stroke-linejoin:round;stroke-miterlimit:10;}
	.st5{fill:none;stroke:#FFFFFF;stroke-width:2;stroke-linecap:round;stroke-linejoin:round;stroke-miterlimit:10;}
	.st6{fill:#00B4EC;}
	.st7{opacity:0.5;}
	.st8{fill:#DBEDE0;}
	.st9{fill:#FFFFFF;}
	.st10{opacity:0.7;fill:#DBEDE0;}
	.st11{opacity:0.7;}
</style>
<g class="st7">
	<path class="st8" d="M45.2,12C45.2,12,45.2,12,45.2,12C45.2,12,45.1,12,45.2,12c-0.1-0.1-0.1-0.1-0.2-0.2l-7.3-5.2
		c-0.2-0.1-0.3-0.1-0.5-0.1v0H0.8c0,0,0,0,0,0c-0.1,0-0.1,0-0.2,0c-0.1,0-0.1,0-0.2,0c0,0-0.1,0-0.1,0.1c-0.1,0-0.1,0.1-0.2,0.1
		c0,0,0,0,0,0c0,0,0,0.1-0.1,0.1c0,0.1-0.1,0.1-0.1,0.2C0,7,0,7.1,0,7.1c0,0,0,0.1,0,0.1v37.5h0.1c0,0.1,0.1,0.2,0.1,0.3
		c0.2,0.2,0.4,0.3,0.7,0.3h36.4c0.4,0,0.7-0.3,0.8-0.7l7.3-32C45.4,12.5,45.3,12.2,45.2,12z M41.9,11.6H7.3c0,0-0.1,0-0.1,0L3.1,8.1
		H37L41.9,11.6z M1.7,9.1l4.6,4c0,0,0,0,0,0L1.7,36V9.1z M36.6,43.7H1.9L8,13.3h35.5L36.6,43.7z"/>
	<path class="st8" d="M23.4,35.9c3.4,0,6.4-2.3,7.3-5.6c0.1-0.3,0-0.6-0.2-0.8c-0.2-0.2-0.5-0.3-0.8-0.2c-3.8,1-7.3-1.9-7.3-5.7
		c0-0.5,0.1-1,0.2-1.5c0.1-0.3,0-0.6-0.2-0.8c-0.2-0.2-0.5-0.3-0.8-0.2c-3.3,0.9-5.6,3.9-5.6,7.3C15.9,32.6,19.3,35.9,23.4,35.9z
		 M20.7,23.2c0,0.1,0,0.3,0,0.4c0,4.3,3.6,7.8,7.9,7.5c-1,1.9-3,3.1-5.2,3.1c-3.2,0-5.9-2.6-5.9-5.9C17.6,26.2,18.8,24.2,20.7,23.2z
		"/>
</g>
</svg>
