<?xml version="1.0" encoding="utf-8"?>
<!-- Generator: Adobe Illustrator 24.1.1, SVG Export Plug-In . SVG Version: 6.00 Build 0)  -->
<svg version="1.1" id="Layer_1" xmlns="http://www.w3.org/2000/svg" xmlns:xlink="http://www.w3.org/1999/xlink" x="0px" y="0px"
	 viewBox="0 0 45.4 45.4" style="enable-background:new 0 0 45.4 45.4;" xml:space="preserve">
<style type="text/css">
	.st0{fill:#DBEDE0;}
	.st1{fill:#ACC2B0;}
	.st2{fill:#00B4EC;stroke:#00B4EC;stroke-width:2;stroke-linejoin:round;stroke-miterlimit:10;}
	.st3{fill:none;}
	.st4{stroke:#FFFFFF;stroke-miterlimit:10;}
	.st5{fill:none;stroke:#00B4EC;stroke-width:2;stroke-linejoin:round;stroke-miterlimit:10;}
	.st6{fill:none;stroke:#00B4EC;stroke-width:2;stroke-linecap:round;stroke-linejoin:round;stroke-miterlimit:10;}
	.st7{fill:none;stroke:#FFFFFF;stroke-width:2;stroke-linecap:round;stroke-linejoin:round;stroke-miterlimit:10;}
	.st8{fill:#00B4EC;}
	.st9{fill:#FFFFFF;}
</style>
<g>
	<path class="st0" d="M45.3,32.6l-7.3-32C38,0.3,37.6,0,37.2,0H0.8C0.6,0,0.4,0.1,0.2,0.3C0.1,0.4,0.1,0.5,0.1,0.6H0v37.5
		c0,0,0,0.1,0,0.1c0,0.1,0,0.1,0,0.2c0,0.1,0.1,0.1,0.1,0.2c0,0,0,0.1,0.1,0.1c0,0,0,0,0,0c0.1,0.1,0.1,0.1,0.2,0.2c0,0,0,0,0.1,0
		c0.1,0,0.2,0.1,0.3,0.1h36.4v0c0,0,0,0,0,0c0.2,0,0.3-0.1,0.5-0.2l7.3-5.2c0.1,0,0.1-0.1,0.1-0.1c0,0,0,0,0,0c0,0,0,0,0,0
		C45.3,33.2,45.4,32.9,45.3,32.6z M1.7,9.3l4.6,22.9c0,0,0,0,0,0l-4.6,4V9.3z M37,37.2H3.1l4.1-3.6c0,0,0.1,0,0.1,0h34.6L37,37.2z
		 M8,32L1.9,1.7h34.7L43.5,32H8z"/>
	<path class="st0" d="M23.4,12.5c-2.4,0-4.4,2-4.4,4.4c0,2.4,2,4.4,4.4,4.4s4.4-2,4.4-4.4C27.8,14.5,25.8,12.5,23.4,12.5z
		 M23.4,19.6c-1.5,0-2.7-1.2-2.7-2.7c0-1.5,1.2-2.7,2.7-2.7c1.5,0,2.7,1.2,2.7,2.7C26.1,18.4,24.9,19.6,23.4,19.6z"/>
	<path class="st0" d="M17.8,16.8c0-0.5-0.4-0.8-0.8-0.8h-2c-0.5,0-0.8,0.4-0.8,0.8c0,0.5,0.4,0.8,0.8,0.8h2
		C17.4,17.7,17.8,17.3,17.8,16.8z"/>
	<path class="st0" d="M31.7,16h-1.9c-0.5,0-0.8,0.4-0.8,0.8c0,0.5,0.4,0.8,0.8,0.8h1.9c0.5,0,0.8-0.4,0.8-0.8
		C32.6,16.4,32.2,16,31.7,16z"/>
	<path class="st0" d="M23.3,22.4c-0.5,0-0.8,0.4-0.8,0.8v2c0,0.5,0.4,0.8,0.8,0.8c0.5,0,0.8-0.4,0.8-0.8v-2
		C24.2,22.8,23.8,22.4,23.3,22.4z"/>
	<path class="st0" d="M23.3,11.2c0.5,0,0.8-0.4,0.8-0.8V8.5c0-0.5-0.4-0.8-0.8-0.8c-0.5,0-0.8,0.4-0.8,0.8v1.9
		C22.5,10.9,22.9,11.2,23.3,11.2z"/>
	<path class="st0" d="M28.4,20.8c-0.3-0.3-0.9-0.3-1.2,0s-0.3,0.9,0,1.2l1.4,1.4c0.2,0.2,0.4,0.2,0.6,0.2s0.4-0.1,0.6-0.2
		c0.3-0.3,0.3-0.9,0-1.2L28.4,20.8z"/>
	<path class="st0" d="M18.2,12.9c0.2,0.2,0.4,0.2,0.6,0.2s0.4-0.1,0.6-0.2c0.3-0.3,0.3-0.9,0-1.2L18,10.3c-0.3-0.3-0.9-0.3-1.2,0
		c-0.3,0.3-0.3,0.9,0,1.2L18.2,12.9z"/>
	<path class="st0" d="M18.2,20.8l-1.4,1.4c-0.3,0.3-0.3,0.9,0,1.2c0.2,0.2,0.4,0.2,0.6,0.2s0.4-0.1,0.6-0.2l1.4-1.4
		c0.3-0.3,0.3-0.9,0-1.2C19.1,20.4,18.5,20.4,18.2,20.8z"/>
	<path class="st0" d="M27.9,13.1c0.2,0,0.4-0.1,0.6-0.2l1.4-1.4c0.3-0.3,0.3-0.9,0-1.2c-0.3-0.3-0.9-0.3-1.2,0l-1.4,1.4
		c-0.3,0.3-0.3,0.9,0,1.2C27.4,13,27.7,13.1,27.9,13.1z"/>
</g>
</svg>
