<?xml version="1.0" encoding="utf-8"?>
<!-- Generator: Adobe Illustrator 24.1.1, SVG Export Plug-In . SVG Version: 6.00 Build 0)  -->
<svg version="1.1" id="Layer_1" xmlns="http://www.w3.org/2000/svg" xmlns:xlink="http://www.w3.org/1999/xlink" x="0px" y="0px"
	 viewBox="0 0 45.4 45.4" style="enable-background:new 0 0 45.4 45.4;" xml:space="preserve">
<style type="text/css">
	.st0{opacity:0.7;}
	.st1{fill:#DBEDE0;}
	.st2{opacity:0.7;fill:#DBEDE0;}
	.st3{fill:#00B4EC;stroke:#00B4EC;stroke-width:2;stroke-linejoin:round;stroke-miterlimit:10;}
	.st4{fill:none;}
	.st5{stroke:#FFFFFF;stroke-miterlimit:10;}
	.st6{fill:none;stroke:#00B4EC;stroke-width:2;stroke-linejoin:round;stroke-miterlimit:10;}
	.st7{fill:none;stroke:#00B4EC;stroke-width:2;stroke-linecap:round;stroke-linejoin:round;stroke-miterlimit:10;}
	.st8{fill:none;stroke:#FFFFFF;stroke-width:2;stroke-linecap:round;stroke-linejoin:round;stroke-miterlimit:10;}
	.st9{fill:#00B4EC;}
	.st10{opacity:0.5;}
	.st11{fill:#FFFFFF;}
</style>
<g class="st0">
	<path class="st1" d="M23.5,16.2c-1.4,0-2.2,1.2-2.2,3.2c0,2,0.8,3.3,2.2,3.3s2.2-1.3,2.2-3.3C25.8,17.4,24.9,16.2,23.5,16.2z"/>
	<path class="st1" d="M37.2,0H0.8C0.4,0,0,0.4,0,0.8v37.2c0,0.5,0.4,0.8,0.8,0.8h36.4c0.5,0,0.8-0.4,0.8-0.8V0.8
		C38.1,0.4,37.7,0,37.2,0z M15.9,24.7l-2.5-4.3l-1.1,1.5v2.7H9.8V14.3h2.5v4.1h0l3-4.1H18l-3.2,4.2l3.7,6.2H15.9z M23.5,24.9
		c-2.8,0-4.8-2-4.8-5.5s1.9-5.4,4.8-5.4s4.8,1.9,4.8,5.4C28.3,22.8,26.4,24.9,23.5,24.9z"/>
</g>
<g>
	<path class="st1" d="M37.1,1v36.9H1V1H37.1 M37.2,0H0.8C0.4,0,0,0.4,0,0.8v37.2c0,0.5,0.4,0.8,0.8,0.8h36.4c0.5,0,0.8-0.4,0.8-0.8
		V0.8C38.1,0.4,37.7,0,37.2,0L37.2,0z"/>
</g>
</svg>
